<svg xmlns="http://www.w3.org/2000/svg" viewBox="0 0 512 512"><path fill="#4f839d" d="M12.3 336.3c-1-8.2-6.1-20-7.9-28.8-18.9-96.3 24-204.9 104.4-260.8C139 25.8 183.8 8 221 4.3c1.3-.1 2.4.6 3.5.5.4-.1 0-1.2 1.3-1.4 78.6-9.8 172.4 22 222.8 83.6 72.2 88.3 87 211.7 22.2 309-.4 2.3-1.1 4.5-3.4 5.4a30.7 30.7 0 0 1-11.4 13.1c-3.8-9-4.6-21-14.8-25.2v-3.7c-.2-1.5-.1-2.9.2-4.3l20.8-61.8 1.8-2.3.8-1.1c5.5 1.3 10.5 1 14.8-1.2 4-9.4 6.6-19.4 7.6-30l1.4-.4c1-.7.8-7.2.6-7.4l-6.7-.7c-1.5-.6-1.3-2.1-1.2-3.5a272.8 272.8 0 0 0 13.9-41.1l-67.8 26.1a237.2 237.2 0 0 1-41.4-11.6c-1.1-.4-2-1.2-1.5-2.5 0-1.5-1.4-2.7-1.7-4.1-1.3-6.3 2.2-6.8-5.7-10-.8-1-1.3-2.2-1.5-3.9a7.6 7.6 0 0 1-1.6-4.8c-.5-.1-.5-.3 0-.6l-.6-.6c-3.3-.7-5-5.8-6-9-1.7-1.1-2.4-2.3-2.2-3.5a92 92 0 0 1-9.6-21.2 198 198 0 0 1-32-16c-7.5-4.3-15.5-7.3-23.6-10a49 49 0 0 1 0-14.3l1.5-.9c18-4 19-15.2 20.4-31.4l.3-11.4 1.3-1.2c13.1-2 27.1-4 38.8-10.8 1.4-.8 3.8-2.1 4.9-3.1 1.3-1.2 2.9-4.5 3.1-4.6v-.9c1.6.6 2.7-5.9 2.5-6.7-.6-3.2-43.8-16.8-50.4-18.1-5.5-11-10.8-22.2-15.9-33.4-25 .6-50.6 2.7-76.8 6.4L228 62.6l-.6 1.5c-11.2 2-21.2 6.3-31.4 10.8-8.7 4-12.2 7.2-4.6 15.3l.2 1.4a42.9 42.9 0 0 0 23.3 10.3c7 1.4 15.1 1.1 21.2 4 .6.2.5 1 1 1 1.1.5 3 0 4.3.8.4 1.4 0 2.9.1 4.3 1.4.8 1.9 2.4 1.5 4.7.2 2.4.3 7.3-1.5 8.5.5 0 1.2.1 1.2.4.4 7.6.6 17.7 0 25.1.4 2 0 3.3-1.2 3.8.4 2-3.8 2.6-5 1.2-2.6.2-5.6-6.5-4.2-8.6l-1.6-.6c-2-6.3-3.3-9.8-11-7.4a196 196 0 0 0-40.1 1.5 30.8 30.8 0 0 1-10.7 3 162 162 0 0 0-34.7-37.9c0-2.5.7-5 2.2-7.5 1.3-2-2.5-16.2-3.4-16.4-9.4-1.4-22.5 9-25.9 17.6-1.1 2.9-4 12 1 10.7h6.8l.9 1.2c1.6-2.3 7.5.4 9.4 2a278 278 0 0 0 35.3 43c.4 1 .2 1.9-.5 2.6-5 3.2-8.5 7.2-10.3 12.1.9 3 .5 4.7-1.2 5l-1 1.4-18 6a835.6 835.6 0 0 0-70.6 12.4 13 13 0 0 1-1 8c-.4 5.4-4.6 16-6.5 21.5-7.6 22.6-16.7 44.7-23.8 67.5.1 3.2 2.2 3.1 3.7 4.4 5.4 4.4 14.2 10 18.5 14.8.8.8.6 2 .7 2 .3.4.9 1 .7 1.2-1.8 2.5-15 20.3-16.3 20.6-7 1.3-16 2.2-22.6.5Z"/><path fill="#edede5" d="M17.2 349.2c-.7 0-1.4.1-2-.1-3.2-1-2.7-10.2-3-12.8 7.5-.1 14.9-.8 22.2-1.6l16-20.6c.7.7 7.5 1.8 6.8 4.5-.2.5-4.3 4.9-5.1 6-5 6.8-11.4 18.2-17 23.7-.5.5-1.4 1.7-2.2 1.5-3.1-6.3-9.9-.4-15.7-.6Zm268.1-158.4a71 71 0 0 0 18.3-4.8c5-2 9.5-5 13-9l-15.3-6.5-.7 8.5-20.9 3.2c4.3-9.8 11.4-18.2 12.3-29.3.3-3.7-.4-7.6.3-11.4 3.6-2 14.3-6 15.5-9.8.4-1.2.8-4.5.9-5.9.6-8.4.4-17.4.6-25.9 0-3.9 1-7.7 0-12h14.2v13c-.3 10.3-.2 28-6 36.3-3.5 5.3-11 7-16.6 9.2l-.2 13c20.2 4.7 36.4 19.2 55.8 25.9 2.2 7.1 5.7 13.8 9 20.5.3.7 1.8 0 .6 2.6 3.5 1.2 2.5 3.4 4 6.3.8 1.5 2.2 2.8 3.3 5.1l.6.6v.6c-1.2 2.3-6.2 1-8-.6-3.1-3.4-3-1.8-6.4-1.8-7.2 0-14.3-.4-21.3-1.9-.2-1.4 0-1.6 1-2.4 2.8-2.1 15.9-6 16.8-7.5.4-.8-.8-5.2-2.3-5.4-8.9 2-17.3 5.8-26.5 7.1-4.2.6-7.9 1.4-11.8-.4-1-1.4 5.4-5.2 6.3-5.7 3.4-1.7 17.5-6 19-8.1 2-2.6-1.8-5.3-4.2-5.8-8.7-1.8-30.1 7.8-40.2 9.5-2 .3-3.6.2-5.6.2-3.6-.1-9.4-4.9-5.5-7.4ZM241.5 112c1.7-1.2 9.4 1 9.8 2.2l.7 48.3c-7 1.4-13.8 4.1-20.3 7 1.1 2.5 3.7 3 5.8 4.7a407.7 407.7 0 0 1 42.8 38.8c1.1 1.3 1.4 1.6-.1 2.4l-1.4 6.4c-.4 1.5-1.3 1.9-2.8 1.7-.6-.2-1.4-.2-1.8-.9a442.7 442.7 0 0 0-49.7-44c-2-1.6-8.7-6.9-10.7-7.3-1.8-.3-2 1.2-3.1 2.3-1.6.7-2.2-.8-2-4.3-2.3-1.2-2.7-2.2-1-3.1l.5-1.7c8.9-2.7 17.7-5.8 26.4-9.3l2 .5c1.3-.5 3.5-.6 5-1.2v-29.3c0-4.9.6-7.7 0-13.2Z"/><path fill="#e5e1d6" d="M207.6 166.2c-.4 1.7 2 1.3 2.4 2.9.4 1.4-.5 3.5.7 4.5-1 1-1 1.6-2.5 2.4-.4-.1-.8 0-1.2.7v1.2c0 1.2-.9 1.8-3 1.7v7.3l-1.3.9c-3.4.3-12.8 4.3-16 6.1.2-2.7-.2-1.4-1.6-1.8-2.3-.7-6.8-1.4-4.6-4.7.5-.8 1.8-1.5 2.5-2.4.4-.6.5-1.4.6-1.6a4 4 0 0 1-.3-1c-.3-2.7 19-15.4 22.7-16.8l1.6.6Z"/><path fill="#1b1e2d" d="M232.3 147c1.2 2.9 2.2 6.2 4.3 8.7-4.2 1.5-8.2 3.8-12.5 5.1-6.7 2-9.7 2-16.5 5.4a88.7 88.7 0 0 0-24 17.2c-3.2 1.6-7.4 5.5-7.4 9.3l-8.6-1.9c-.6-2.7 1-11.4-1-13a59.8 59.8 0 0 0-18.1-1.8c1-1.6-.2-3.2 0-5.1.2-2.6 2.8-6 4.5-7.8 1-1 7.3-5.1 6.5-6.1-3-1.7-6.2-5.6-8.6-8.4-6.2-7.3-12.2-15-18.1-22.5-2.2-2.9-6.5-10.4-8.6-12.1a18.7 18.7 0 0 0-8.4-2.7c-3-.8-2-6.6-1-9 2-6 11.4-13.4 14.9-4.8 1.3 7.5 3 13.1 9 18.2l15.9 15.5a63 63 0 0 1 15 21.8c9-7 23.6-7.3 35.1-7.3 8 0 16 0 23.9.2.6 0 1.2.2 1.8.4l1.9.8Z"/><path fill="#edede5" d="M115.8 111.3c-2-.1-10.9.6-11.6-.7-1.1-16.9 12.9-29.1 29-30 .9.2 1 1.1 1.4 1.8.7 1.7 3.3 10.8 3.4 12.6.3 4.6-2.4 6.2-2.8 10.2 3.4 1.7 6 4.1 8.6 6.7 5.9 5.8 13.6 14.4 18.8 20.7 2.6 3.2 4.8 6.6 7 10 1.3.4 7.5-2.7 9.7-3.2 12-3 27.8-1.3 40.4-1.5 2.6 0 4.6-1.5 7.5-.2 2.5 1 4 6.8 5 9.4-10.9.3-22-.5-33 0a95 95 0 0 0-19.8 2.3c-3.8 1-6.7 3-10.3 4.4a79.7 79.7 0 0 0-11.4-17.5c-6-7-23.1-21.4-26.4-27.8-2.9-5.6-.9-19-11.2-11.6a13 13 0 0 0-4.3 14.4Z"/><path fill="#e5e1d6" d="M374 220.4c-.2-.2-.5-.3-.6-.6l.6.6Z"/><path fill="#edede5" d="M148.5 176c.6-1.2 1.9-1.6 3.8-1.3 4.3-.1 15.6 0 16.4 5l.2 10.1c.4.4 7.7 2.5 7-.5 1.3-2.3 5.1-7.6 7.7-5.9 1.8.4.8 2-.2 3-3.8 2.4-2.7 4 3.4 4.7 1.6 1 1.1 1.7-.1 2.8-1.3.8-2.8.8-2.5 2.8 2.8 1.5 2.9 5.4 3 8.3 0 .7-.5 1.4-1.2 1.9a22 22 0 0 1-.6 12.3c1.3 2.5 1 7.7-1.8 8.6l.8 1.4c-1.7 4.7 0 9 5.5 8-.6-3.2-1.4-6.4-2.6-9.4-2-.7-1.4-5.8-.6-7.4a34 34 0 0 1 .6-13.5c-.6-.2-.5-.4 0-.7 1.7-.3 1.2 1 1.5 1.9 6 17.8 10.9 35.9 16.2 54.1l10.6 31.9c0 .6-5.5 7.2-6.4 8.3-.8 1-2.1 1.3-2.8 2.1a394 394 0 0 0-14.3 19c-1.1 3.4-.7 9.8-1.2 13.6-1.3 10.6-3 21.2-4.2 31.8 1.6.3 1-.3 1.5-1.2.4-.8 2.3-8 4-6.8 8.2 20.4 13.3 41.9 22.2 62 10 1.2 19.6 4.3 29.4 6.2 17.4 3.5 47 3.2 54.5 22.6 1.3 3.3.5 5.1 1.1 7.4.2.7 1.3.4 1.3.4V483h-10.5v-19.4c0-.1-.6-1.4-1-1.5h-5.8l-1.2 21.6h-9.3c-.3-2.9-.2-21.3-1.6-21.6H266l-.9 1-.7 20.6c-3.6-.5-7-1.2-10.5 0v-18.8c0-5.1-7.4-13.6-11.9-15.9-11.7-5.9-24.6-8.9-35.5-17.5-6.2-4.8-6-8-15.2-9.4-14.4-2.3-35.4-2.2-50.4-2.6-2 0-12.4-.2-13.3.4-1.7 2 .7 3.2 2.3 3.8a171 171 0 0 0 22.2 5c31 5.4 66.2.1 68 42.3.1 4.1-.2 8.2 0 12.4-.3.9-1.4-.4-1.6-.4h-9v-18.7c0-.2-.7-2.2-1-2.2h-5.7v21c-3.5 1.1-7 .5-10.5 0 0-7 .1-13.9-1.2-20.6l-6.8-1v22.2c-3.2-1.2-7.2-.9-10.5 0l-.6-1.3c-1.5-10.6 3-17.6-4.7-27.6-7.8-10.3-37.6-14.4-50.8-18.3-7.2-2.1-14.3-4.7-21.4-7.1l-.2-6.4c-9.2-23.1-15-51.4-25.5-73.7-2.2-4.6-5.3-9.5-10.8-10.5-.9-1 .1-1 1-1.2 4.8-.7 11.1-1 16-.6 2 .1 4.2.1 5.5 1.9l19.8 57.8 28.8.6c2.2-.7-.3-7.7 3.2-8.6 3 0 4.6 11.2 6 13.8 1.6 3.1 4.3 1 6.9 1 7 0 12.3 3.5 10.2-6.7l24.5-.1c1-3 .9-6.1 1.7-9.2.7-2.7 2.2-4.2 2.7-6.8-1-.2-.2 1.1-1 1.3-3 .7-7.9-.5-11-.7-1.7 0-11.8.5-12-.9a10 10 0 0 1 2.1-5.2c3.8-5.3 13.6-10.3 16.4-15 .6-1 .8-1.7.6-2.9l-24.6-.6-4.4-59.2h9.3c3.4-1.7 7-1.6 10.5 0 .2.5.8 1 1.2 1.6 8.6-.2 19 2 27.5 1 3.6-.5 4.4-6.3 4.6-9.3-7.5-1-15.1-.6-22.6-1.3-1 0-1.8-.3-2.7-.6-1.5-1.7-.2-5.3 1.8-6.1v-1.3c-.5-.3-.5-.7 0-1.2.5-.2.7-.6 1.5-.6 6.2-.6 13.2 0 19.5-.6l-1.2-9.3c-5.8.5-11.6-.6-17.3-.6.2-1.6.7-3.4 1.7-5.2-.2-2.5.3-4.3 1.4-5.3 2.7-.8 5.5-1.3 8.4-1.2l-.9-6.4 1.1-1c0 .5-.2 1.2-.5 1.2a59 59 0 0 1-10.3 0l-.9-1.2c2 1.4 2.2 7.4 0 8.6.5.8.5 1.8 0 3 .6 3.5.2 6-1.2 7.5-.6 2.7-5 11.9-6.7 14.6-1.6 2.5-4 6.6-7.2 7-15.8 2-22.3-1.2-32.7-12.3-10-10.7-19.9-25.4-20.6-40.4-.2-2.7.9-8.4.3-10.2-1.9-6.2-13.2-17-18.6-20.8-3-2-15.7-9.7-18.4-10-1.7-.2-12.4 3.4-15 4.1-2 .7-4.6 1.3-6.2 2.7 0-1.3-.7-8.6 0-9.3 1 0 2.1.1 3.2-.1 22.9-5 40.7-9.1 64.2-11.6 9.5-1 16-5.9 23.2-6.8Z"/><path fill="#e5e1d6" d="m173.7 483.6-.6-.4v-.9l.6 1.3Zm13.6-225c.2 3.8 0 8-3.1 10.5H183c.4-2.3-.4-5.8 0-8.3.2-1.3 1.2-2 1.2-2.2 0-1.8 2.7-1.7 3 0Z"/><path fill="#4f839d" d="M181.7 282.7c-.5 2.1-1.2 4-1.8 6.1-1.7-.4-3 .2-2.4-2.6.2-1 2.7-4.8 4.2-3.5Zm0-2.5.6.4c0 .4-.5.7-.6.8h-1.2c-.3-1.9.5-1 1.2-1.2Z"/><path fill="#e5e1d6" d="M187.3 205v1.9c-.2 1.6-.8 1.5-1.3 0V205h1.3Z"/><path fill="#1b1e2d" d="m147.8 182.2 1.9 25.3 13.5.6-1.2 10.5-21.6-1c-.8-.4-5.6-14.3-6.6-16.7-.8-1.7-6.6-11-5.7-12 7.2-.1 13.3-4.2 19.7-6.7Zm-15.5 35.1-6 2.2c-3.5-4.2-6-9-9.9-13-4.8-5-11.5-7.9-15.7-12-.6-.6-1.2-.8-1-1.8l9-2.4c3.3 0 15.7 12 18.2 15 1.4 1.7 7.2 10 5.4 12Zm20.4 25.8c-.3.4-6.9 4.6-7.7 5-1.3.5-3.3 1-4.8 1-2.9 0-12.6-4.2-15.6-5.7-2-1.1.3-2.9 1.4-3.9 3-2.7 10.7-6.3 14.7-6.2 3.5.2 14.2 6 12 9.8Zm19.6-8.4c5.7-1 13.4 4.5 8.1 10-4.2 4.4-10.3 6-14.3.3-3.4-4.6 1.8-9.5 6.2-10.3Zm-16.6 27.1a40 40 0 0 1 12.2.5c2 8.1-2.9 14.4-11.3 10.6-4.6-2-4.7-10-1-11Zm32.5 48.6c.3 0 2.1.7 2.2 1l-1.3 8.9h-15.4v-10c4.6.5 10-.5 14.5 0ZM166.7 197c5.3-1.7 8.5 12.9 8.8 16.4.1 1.3.6 4.6-1 5-1.3.1-3.4.5-4.7 0-2.7-.9-4.6-17-4-19.9 0-.7.1-1.2 1-1.4Zm17.5 61.6c.4-2.8 0-5.7 0-8.6h11.7l1.2 8.6h-12.9Zm3.1-30.8c3.3.8 3 8.1 4.3 10.8-8.2.8-10.6-3.3-8-10.8.7-1.7 3.1-2 3.7 0Z"/><path fill="#e5e1d6" d="M186.7 220.4c1 2.5.5 4.7.6 7.4-1-.2-2.6.2-3.7 0 1-2.7 1.6-5.2 1.8-8.6 1-1 1.1 0 1.3 1.2Z"/><path fill="#4f839d" d="M187.3 206.9c.1 4.5 0 9-.6 13.5-.2-.4-1-.8-1.3-1.2.4-4.2 0-8 .6-12.3h1.3Z"/><path fill="#edede5" d="M191.6 91.6c-.4-.4-1.4-.3-2.5-1.5-2.2-2.6-4.4-8.9-1.8-11.7a72 72 0 0 1 12-6.4 104 104 0 0 1 27.4-8.7l1.9-34.5c13.5-1 26.8-3.8 40.3-5 12.8-1.1 25.7-1.2 38.5-1.7L323 55.7c14.3 3.8 29.5 8 43 14 1.6.8 8 3.4 8 5l-1.2 7.3c-.4 1-2 .1-2.5.4A116.3 116.3 0 0 0 330.5 70C296 65.2 227 66.6 196.7 84.7c-2.7 1.6-5.5 3.3-5.1 7Z"/><path fill="#1b1e2d" d="m293.2 32.5 8.4 19 .3 2.5c-21.2-.8-42 3.2-62.9 5.6l.7-21 53.5-6Zm77.1 49.9c1.6 4-6 8.4-9.4 9.9a115 115 0 0 1-35 9.4l-2.4-.8c-1.8-3.8-2-9.3 0-13-.2.5-.4 1.2-.7 1.3-1.7.1-12.5.1-13-.5-.3-.2-.4-.5-.5-.8l1.4.9c.4 14.5-.2 29-1.8 43.3a30.5 30.5 0 0 1-15.6 10c1.8 14.7-4.4 26.2-11.5 38.5l17.5-2.6.8-7.4c.5-.6.6-.7 1.3-1 .9-.3 16.2 6 16.2 7.4 0 6.2-24.8 15.1-31.4 15l-1-1.2-1 1.3c-4.8-1.7-8.9-1.5-12.2.4 6.3 1.8 12.6 3.7 18.8 5.7 1-1.2 2.6-1.6 5-1.4a428 428 0 0 1 37-9.7c8.3-1 14.7 7.1 4.3 10.7a69 69 0 0 0-20 9.5c0 3.3 30-4.5 32.2-6 6.9-4.1 11.5 5.6 4.7 8-.5.3-15.7 6.2-14.6 6.5 8 1.2 16 2 24 1.2 1.6.5 3.8 1.7 2.6 3.4a25 25 0 0 1 6.7 6v1.4c1 .3 1.7.7 2 1.2 1-1.4 2.4-1.2 2.4.7 2.2-1.8 6.4 1.5 6.6 4.2-.2 3.2 0 5.9 1.8 8.6l-1 1.3-4.4-.5c-23.2-7.7-46.6-14.7-70.2-21.1-3 17.1-9.3 34-17.4 49.6l-24.6.9-11 16.2a211 211 0 0 1-23.4 3.8l-3-.8a17.5 17.5 0 0 1-8.8 2.8c-.6 3-1.7 5.6-3.4 8.1 3.9.4 7.7.4 11.5 0l1.2.8 1.8-.9c8.4 0 16.5-.4 24.5-1.1 6-7.2 11.8-14.9 17.4-23 11.7-.2 23.3.7 34.8 2.5 1.2.2 1.7.9 2.1 2 1.2 3-8 32.2-8.8 34.4-.4.9-17 5.6-19.4 4.6-.9 1.2-2.6 1.6-5.2 1.2l-6.5 9.9.6 1.2c-11 18.2-19.6 38-27.3 58.3l38.2 10.2a60 60 0 0 0 4-13l1.1-.6q1.3-2.8 0 0l-1.6 1c-1.8.2-12.8.2-14.3 0-.9-.2-9.8-10.3-9.6-11.4.1-.6.7-1 1.2-1.5a60.2 60.2 0 0 0 14.8-9.8l-11.6-4.2c-3.3-10.7 5.7-10.3 13.2-6.7a93 93 0 0 0 18.7 6.7 99.5 99.5 0 0 0 10.2-21.2l-23.5-8.5c-1.4-1.3-2-6.5 0-7.3-2.6-1 .7-3.6 2-1.2l.7-1 25.3 8a103 103 0 0 0 10.4-22c-7.9-.6-12.4-6.1-4.9-11.4l9 2c3.3-6.6 6-13.1 8.4-19.7l-30.6-10.6c-2.5-1.5-.2-9.7 2.6-9.9l14 3.8a33 33 0 0 0-5.1-12.8c0-1.2 14.7-12.7 16.2-12.7 2 .2 3.2 2.4 3.8 4.1a48 48 0 0 0 6 12.5c2.3 3.8 1.9 5.5-2.7 5.5a31.1 31.1 0 0 0-12.3 6.2l13.2 3.7 12-26.8c7.3-1.9 10.6 4.6 6.4 11l-7.4 14.9c-.4.5-1.2 3.4-.7 3.7 1 .8 22.4 7.1 23.6 6.9 1-.2 7-15.4 7.8-17.5 1.9-6.9 9-11.4 12-3.2-2.5 8.3-5.7 16.4-9.6 24.3l23.6 6.9c3.4-6.8 6.7-13.8 9.8-21.1 2.2-5.5 12.3-4 9.9 2.5A68 68 0 0 0 423 288c.9.3 17.4-5.2 18-6 3.4-6.7 6.2-13.7 8.5-21 1.8-11 17.2-12.5 11.3.4-2.7 5-4.4 10.6-6 16.2a53.6 53.6 0 0 1 18.4-3l.6.8a36.9 36.9 0 0 1-24.1 14.5 230 230 0 0 0-8.9 22l12.4-2c4 2-1.1 8.8-4.3 9.6a73 73 0 0 1-13 3.6l-7.3 18.9 18.3-4.3c2.5 1 2 8.4-.3 9.7l-23.3 7.3-6 15.5 3.4-.7c6.2-2.4 20.6-8 12.8 4.2-6.7 3.4-13.8 6.2-21.3 8.2a147 147 0 0 0-9.8 24.8c11.1-3.8 22.3-7.4 33.5-10.9a25 25 0 0 1 5.3-10.2c1.1 0 1.5.9 1.2 2.9 6 2.6 8.4 7.8 10.7 13.5 1.4 3.5 3.5 9 2.9 12.5l-.4 1.8c-.2.6-.3 1-.7 1.5a195 195 0 0 1-31.4 34c-.9.7-1.7 1.3-2.7 1.8a5 5 0 0 1-1.8.4 248 248 0 0 1-142.6 54.2c-.4 0 0 1.1-1.3 1.3a245 245 0 0 1-54.2-2c-96.7-13-162.1-69-202.9-155.1-.5-1-1.1-1.8-.8-3.2l.6-1.2c2.4-1.3 14.5-3.8 15.6.2 6.5-7.6 12.4-15.7 17.7-24.3 4.4-4 5.5-6.2 3.4-6.9-2.6-.5-4-1.5-4-3l-1.3-.3A112.7 112.7 0 0 0 28 296.5a4.6 4.6 0 0 1-1.5-3.8c10-28.3 19.7-56.2 29.2-83.8.2-2.6 1-4.3 2.3-5.1l.6-2c1-.9 18.8-6.2 20.7-6a82 82 0 0 1 19.6 10.6c6.2 4.8 17.6 15 18.7 22.7-3 18.6 7.3 34.4 19.2 47.8 9.4 10.5 19 15.8 33.3 12.2 3.8-.9 10.1-15.7 11.5-19.4l1.5-.6c.3-1.2.9-1.2 1.2 0l2.5-1.2c1.3-.1 14.5.7 15.2 1 1.2.4 2.3 10.1 1.4 10.8a123 123 0 0 1-20.4 1.2l-1.2-.7c-.3.4-.3.8 0 1.2 1.7.2 1.5.6 0 1.3-3 2.3-3.6 4.3-1.8 6.1l1-1c8.3.4 16.6 1.1 24.9 2.1 2 10.8-5.8 12.8-15.4 11.4l-17.7-1.3c-1.2-.7-1.8-1.3-.8-2.5l-1.5-.5q-2.8-.2-7.8-.2l-1.2.7c-2.5 1-5 1.5-7.9 1.5l4.1 56.4 22.8.6c4.8 1.7-.4 7.2-2.9 9.1-1.5.3-16.6 13.5-14.2 14.6 6.3.2 12.7.6 19 1.2 5.2-2 6 .2 2.3 6.5-.3 3.8-1.2 7.2-2.6 10.2-7.8.3-15.5.4-23.3.3 1 6.5-2.9 8.8-11.8 6.8-3.6 1.3-6.3.7-8-1.7-1.1-4.7-2.7-9-4.8-13.1a278 278 0 0 1-2.2 8c-10 .6-20.2.5-30.4-.4-7.2-19.1-14-38.5-20.3-58.1-1.6-2-15.8-1.8-18.3-1 5 2.6 8 8.3 10.1 13.4 7.2 18.4 13.2 37 18.9 56a52 52 0 0 1 5.5 20.6 582 582 0 0 0 53.1 15c18.6 6.2 26 13.6 23.5 33.6.5 2.3.2 4-.9 5.3 0 .5.2 1 .6 1.3 1.1-2.8 9.6-3 10.5 0l-1.2-.8v-20.5l1.2-1c-.4-2.1 7.4-.1 7.7.4 1.5 6.6 2 13.3 1.5 20.2 2.7.4 5.4.8 8 .1l1.3 1c-.5-.2-1.2-.4-1.2-.8a127 127 0 0 1 0-19.3l1.2-1c.5-2.6 10.1-1.4 6.8 2.3.4 0 1.2.2 1.2.5.3 3.1.5 14.6 0 17.3l-1.2 1c.8-2 8-2 8.9 0 1.2-.3 1.3-.6.3-.8 2-33-8.6-44.1-39.4-49-16-1.3-32-3.9-47.5-7.6-3.2-.3-9-4.2-4.6-7 2.3-1.5 41.5.2 45.4.4 4.9.3 9.7.7 14.5 1.2 9.8 1 13.5 3.5 20 10.3a170 170 0 0 0 32.6 16c4.6-.2 18 16 15 17.9a4 4 0 0 1-.9.4c.5 0 1.2.2 1.3.5.4 3.4.5 14.2 0 17.4l-1.3.9c.1-.6.3-1.1.7-1.5.9-.9 7-.2 8.5 0l.9-19.4c1-2.6 7.4-2.6 8.8-.9 1 1.1 1.5 18 1.4 20.8l-1.2 1c.6-2 8.3-2 9.3 0-.5-.2-1.2-.5-1.2-.8 0-2.7 1-20.5 1.6-21.3 1.1-1.4 10.5-1.4 7.6 2 .5 0 1.2.2 1.2.6.3 3.3.6 15 0 18l-1.2.8.7-1.2c1.8-.4 9-.5 9.8 1.2-.5 0-1.2 0-1.3-.4-.5-5.2-.5-17 0-22.2l1.3-.8c-.3 2.3-2.4 1-2.6-1 .2-15-15.8-21.6-28.5-24a657.6 657.6 0 0 1-56-10.8 1135 1135 0 0 1-22.1-61l-2.6 6.5c-2 2.2-4.2 0-3.1-3.3 2-14.5 3.7-28.8 5.2-42.8l4-5.7c6.2-8 12.6-15.9 19.3-23.5-7.4-21.3-14.3-43-20.4-65.7l-6.6-22c-1-.1-1-.7 0-1.2-1.2-1-1.9-2.6-2-5.1-3-2.7-3.1-7.9 1.4-6l.1-1.5c4.7-2.3 9.5-4.4 14.6-5.7l1.3 1 .7-1.2c.8 0 11.5-.1 11.2-.6l-7.7-6.5.1-1.5c-1.2-.4-1.2-.9 0-1.2.2-1.1.4-1.4 1.2-.7 0-1.6.5-3.1 2.5-2.4-.3-2 .5-3.3 2.7-3.5 7-.8 55.6 45.3 62.2 52l.4 1.4 1.4-.9c7.3 0 9.9-2.7 3-7.9V213l-1.7-.5-1.3-.8a786.6 786.6 0 0 0-40.9-36.7c-5.1-2.3-6.6-4.6-4.3-7 6-2.7 12.1-5.2 18.5-6.4l-.6-46.9c-2.3-1.2-5-1.9-7.6-1.8l-1-1c-1-.5-1.5-1.7-1.4-3.4a15 15 0 0 1-6.8-2.4 198 198 0 0 1-31-6.3c-3.7-1.6-9.9-4.4-10.7-8.2-3.5-3.5 3.2-7.4 6.4-9 25.5-13.2 60.7-15.8 89.2-16.1 19.2-.3 40.4.7 59 5.4 4.9 1.2 21 5.8 23.4 9.1l.7 1.4Z"/><path fill="#edede5" d="M88 244.5c-.2.2-.1.8-1 1-1.8-.4-4.8.8-6 .8H70.8l-.6 9.2 21.8 1.2 4.7 11.2-31.4-.7-.7 8.7 36.4 1.9 3.7 11-39.4-.6c-.6 3.4 2.3 9.3 5.9 9.8 5.7 1 13.6.4 19.6.7 1.2 0 2.4.6 3.7.6 3 .1 17.5-.6 18.5.6l2.8 11.1-28.4-.6 1.3 7c.8 2.1 24.5.4 28.2 1.1l19.2 64-24-.7-18.8-52.3c-8.6-8-16.4-17-25-25-5.4-5-11.5-9.4-17.1-14.3l25.2-86.4c1.4-.3 1 .2 1.3.8 4 6.2 7 13.2 11 19.5l-13 .6-1.2 9.9h9.9c2.3 0 1.1 2.3-1 2.6 1 3.5 2 5.4 4.7 7.3Z"/><path fill="#e5e1d6" d="M84.4 234.6c4.1-6.7 15.2-6.8 14 3-2.4.6-6.2 1.4-8 3.1-.5.4-1.6 3-2.3 3.8-5.1.5-4.3-5.6-6.8-8.4.5-.8 2.4.1 3-.4.3-.2 0-1 0-1.1Z"/><path fill="#edede5" d="m207 177.9 9.9 8.3c-.4 1.9-12.2 1.4-14.2 1.6v-9.2l4.3-.7Z"/><path fill="#e5e1d6" d="M285.3 190.8c-.6 4.2 2.8 5.4 5.5 7.4-1.9 0-2.6 0-4.8-.4-5.4-1-10.7-3.4-16.1-4.5-1.1-1.2 4.3-3.5 5.2-3.7 2.7-.3 6.3 1.4 10.2 1.2Zm-5 22.2c2.3 2.5 6.1 4.4 5.5 8.6-3.8 1.4-5.7 3.4-9.8 1.9 2.7-1.7 2-6 3.2-8.8.2-.6 1.5-.5 1.1-1.7Zm93.7 8c1.3.5 4.5 7 3 8.7-.4-.3-1.5-.3-2.4-.7-.5-.5-1.1-.9-1.8-1.2-3.2-1.1-4.7-5-6.8-7.4l8 .6Z"/><path fill="#4f839d" d="M171.9 297.5h-10.5m211.4-69.7c.4.2 1.3-.1 1.8 0v1.2c-.8-.2-1.5-.1-1.8-1.2Z"/><path fill="#edede5" d="M207 176.7c0-1.5-.4-2.2 1.2-1.9v1.2l-1.2.7Zm123.9 205.8-14.2 33.2c-3.5.6-6.1-1.8-9-2.9l-16.9-6 13.7-31c2.1-1.3 22.5 6 26.4 6.7Zm14.1-31.4c1.2 1.7-8.2 21.3-10.2 24l-26.1-6.8c-1.1-1 8.8-21.6 10.9-24l25.4 6.8Zm17.9-37.1-25.8-8c-1.8-2 9-20.1 9.2-23.9l26.2 8-.1 2.3-9.5 21.6Zm16 48.2c1.4 2.3-7.7 19.8-8.7 23.3l-27-6.7c-.3-1.3 0-2.4.5-3.5 2.1-6.4 6.9-13.2 9.4-19.5l1-1 24.8 7.4Zm-14.8 57.3c4.3-8.5 7.6-17.6 11.3-26.4l24.3-8.6c.9-.2 1.6-.6 1.4.7-1 4.8-4 11-5.7 16-1 2.9-1.5 7.3-2.4 9.8-.5 1.2-1 1.2-2 1.8a111.3 111.3 0 0 1-28 10.4c-1.5-1.2-.8-3.8 1.1-3.7Zm-6.7-71.5.3-2.5 10-21.5 25.4 7.7-9.8 22.8c-9-1.2-17.4-3.9-26-6.5Zm13.6-30.2c-2.1-2 9.6-21.4 9.8-25.3 3.4 1.5 24.5 6.1 25.2 8.4.6 2-8.1 19.3-9.6 22.4l-25.5-5.5Zm54.2 7.4-8 21.2c-3.1 1-24 8-25.3 7.1l9.5-21.5 23.8-6.8Zm12.9-32.7c1.3 1.3-8 20.5-9.4 23.3l-23.3 7.5 10-23 22.7-7.8Zm-25.3 62.9c-1.3 6.7-4 13-7.4 18.7l-25.2 9c2.7-6.6 4.5-13.7 8.3-19.7l24.3-8Zm-69.6-13c-2.6-1-19.1-4.7-19.7-6.5l7.4-18.1 5 7.6c1 2.2 8.3 16 7.3 17Zm16-21.5c.6.7-3.4 10.5-4.2 12.1-.3.7-2.6 6.2-3.8 5.1-2.3-7.8-7.9-14.5-9.2-22.8l17.2 5.6Z"/><path fill="#e5e1d6" d="M230.4 291.9c3-.1 3.7 1.8 2 6 1.3 2.3 1.2 4.7-1.4 5.7-.3 0-1.2.6-2 .6-4.3.2-8.5 0-12.8 0 1.7-3.6 4.4-6.8 4.4-11 3.3-.2 6.6-.8 9.8-1.3Zm53 30.2c2.5-.5 7.9.7 4.3 3-2.6-.2-1.6 1.2-1.8 1.3-.4.3-8 1.6-9.7 2.3-1 .3-2.4 3.2-3.3 4.2-.3.4-1.1.2-1.2.3.5-4.3 4-7.3 5.7-11 .5-.3 5-.2 6-.1Zm80.7 97.4c-.4 1-.7 2.8-1.2 3.7-1 1.8-4.7 2.6-6.8 3-.7-2.8.8-5 1.3-7.3l6.7.6Z"/><path fill="#edede5" d="M356.1 426.2c-3.5.8-4.4.4-7.9-.4-7.8-1.7-15.7-5.4-23.7-6.9l-.4-2.1 14.1-30.8 1.6-.5 26.8 7.5c1 1.2-7 17-8 20-.7 2-.8 3.9-1.2 5.9 1 1.5 0 6.1-1.3 7.3Z"/><path fill="#1b1e2d" d="M354.8 408.3c-3.8 1-8.5 2-11.3 5-.7.9-.5 2.4-1.5 2.5-.5-2.8-1-5.7-1.9-8.4-.5-1.6-3.5-6-3-7 4.4-3 9.7-6.3 12.3-11.1.8-.2.5.2.7.7 1.3 3.2 3.8 10.8 4.5 14a9 9 0 0 1 .2 4.3Z"/><path fill="#edede5" d="M285.9 326.4v6l25.3 9.2c-1.5 3.2-9.4 22.3-11.6 23-.7.2-1.3-.1-2-.2-7.5-1.4-18.3-7.8-25.7-8.9-4-.6-4.3 3.4-4.2 6.7.4.7 9.7 3.4 11.4 4 .8.3 1.5 0 1.2 1.1-1.1 4-13.1 9.3-16.6 11.8l9 10c5.7-.3 10-.7 15.6.2 0-3.6-7.7-20.4-6.1-22.2l14.7 6-7.4 16.1c-.2.2-.8.1-1.2 0 0 1.2 0 2-.2 3.2-.2 1-3.2 10-3.6 10.6-.3.7-.5 1.1-1.4 1l-39.7-10.4c4-11 8.5-22.2 13.6-32.9a243 243 0 0 1 14.7-27.5c2.6-6.2 7-7 13.1-7.8l1 1Z"/><path fill="#edede5" d="M384.5 243.8c.7.3 1.5 1.3 2.4 1.6 13.3 4.3 26.5 9 40.3 11.3 15.4-7 31.6-12 47.4-18 2.6-1 21.2-9.3 22-8.4-.4 4.3-1.8 8.5-3 12.6-3.1 10.3-7.3 20.2-11 30.3l-.1 2 8 .7c-.3 2.1.5 5.8-.1 7.6-.3 1-1.7 1-1.8 1l-2.5 1.2c-3.6.1-18.2 1-20.8 4.5-1.6 2-5.3 21.9-4.1 24.4 1.6.8 2.5 1.6 2.8 2.6-2.5 12.9-8.4 24.6-12.6 37-3.6 10.4-6.4 21-10.2 31.4-1.4 3.8-3 7.6-4.3 11.4-5.1-.4-33.8 12.7-35.8 10.8v-1.5c.3-2 7.3-20 8.5-22.4.6-1 1-2.1 2-3 6-2.2 13-4 19-7 1.4-.7 3-1.3 3.5-3 .4-1.1 1-4-.6-3.8-5.2.2-12.5 4.6-18.2 4.6l7.1-18.2 24.5-7.5.4-7.3-19.4 4.9c-.9.3-1.1 0-.9-.8 2.2-6.9 5.6-13.6 8-20.4 6.3-2.6 18.6-2.4 18.5-11.4l-14.2 2.5c-1-1.2 8.3-21.5 9.4-24.5 4.4-1.9 10.5-2.6 14.5-5 3.4-2 6-6.6 10-8.4-7-1.3-13.4 3.4-20.3 3.4 1.7-3.8 2.4-8 3.8-12 .8-2 6.8-12 3.2-13.2-1.8-.6-5.4.1-6.7 1.8-4.4 8.7-6.2 19.1-11.4 27.4l-21 7c1.4-4.3 3-8.7 4.7-12.9 1.1-3 6.4-8.7-.7-9.2-3-.2-3.7 1.3-4.9 3.6-3.4 6.4-5.5 14.1-9.2 20.4l-1.1.5-25.1-7.3c-.8-1 9.2-20.1 9.7-23.9.6-3.8-2.3-4.5-5.6-4.3-4.2 4.9-5.5 12-8.5 18-.7 1.2-3.1 6.8-4 7l-25.4-7.3.2-3c1.8-6 9.5-17 10-22.7.4-2.7-3.3-3.4-5.2-4.3-.5-.2-.8.1-1.1.4-1.4 1-5.2 12.6-6.4 15.3-1.7 3.9-3.7 7.8-5.6 11.6-1.9 1.2-12.3-4-15.4-3.4-2.5-2.5 13.9-10.5 16.6-8.6.9-.9-4.9-9.7-5.6-11.3-1-2.1-2.1-9.2-5-8.4l-14.6 11.4c2.7 4.3 5.8 9 5.5 14.4l-16.2-4.3-2 7.4 33 11.4-10 21.8-9.5-2.4c-1.5 0-3.1 4.7-2.4 6.2.9 1.8 6.3 2.5 8.3 3.1 1.6 2-8.6 20.4-10 23.6l-.9 1-26.7-8.6v-1.8c-1.4.2-3.4-1.2-4.3-1.3l18.5-5.4c2-4.8 3.5-9.8 4.8-14.8.3-1.2.1-2.6.4-3.9.6-2.2 4.4-14.5 3-15.4-11.4-3-23.2-1.8-34.9-3-3 4.8-6.6 9.2-10 13.8-2.8 3.6-4.9 10-10.4 10-7.8.3-15.9 0-23.8.2-.3-1.2 1-2.2 1.1-2.9.2-.9-.9-1.6-.9-2.8 0-1.3 1-3.2 1-4.5l-1.8-1.5c8.6-1.3 17.4-2 25.9-4l10.9-16.4c8.3-.4 16.5-1 24.8-.6 2-5.6 5.2-10.8 7.3-16.5a316 316 0 0 0 8.5-26.6 24 24 0 0 0 .9-7.4 644 644 0 0 1 46.8 14c9.6 3 19.4 6.3 29 9.4Z"/><path fill="#1b1e2d" d="M488.6 284.5c-.6.9-2 12.5-2.6 15-1 4-3.2 15.4-6.7 17.3-3 1.7-11.7 1.1-15.3.4-4-.9-4.4-1.6-4.4-5.9 0-3 3.3-19.7 4.7-21.8 1.6-2.4 9-3.8 11.9-4.2 4-.7 8.3-1 12.4-.8Z"/></svg>